<?xml version="1.0" encoding="UTF-8"?>
<svg xmlns="http://www.w3.org/2000/svg" width="64" height="64" viewBox="0 0 64 64">
  <defs>
    <linearGradient id="g" x1="0" y1="0" x2="1" y2="1">
      <stop offset="0%" stop-color="#667eea"/>
      <stop offset="100%" stop-color="#764ba2"/>
    </linearGradient>
    <filter id="shadow" x="-50%" y="-50%" width="200%" height="200%">
      <feDropShadow dx="0" dy="4" stdDeviation="3" flood-color="#000" flood-opacity="0.25"/>
    </filter>
  </defs>

  <!-- Background rounded square -->
  <rect x="4" y="4" width="56" height="56" rx="14" fill="url(#g)"/>

  <!-- Inner chip with subtle shadow -->
  <g filter="url(#shadow)">
    <rect x="17" y="17" width="30" height="30" rx="6" fill="#ffffff" fill-opacity="0.95"/>
  </g>

  <!-- Chip pins -->
  <g fill="#ffffff" fill-opacity="0.9">
    <!-- Top pins -->
    <rect x="22" y="10" width="4" height="6" rx="1"/>
    <rect x="30" y="10" width="4" height="6" rx="1"/>
    <rect x="38" y="10" width="4" height="6" rx="1"/>
    <!-- Bottom pins -->
    <rect x="22" y="48" width="4" height="6" rx="1"/>
    <rect x="30" y="48" width="4" height="6" rx="1"/>
    <rect x="38" y="48" width="4" height="6" rx="1"/>
    <!-- Left pins -->
    <rect x="10" y="22" width="6" height="4" rx="1"/>
    <rect x="10" y="30" width="6" height="4" rx="1"/>
    <rect x="10" y="38" width="6" height="4" rx="1"/>
    <!-- Right pins -->
    <rect x="48" y="22" width="6" height="4" rx="1"/>
    <rect x="48" y="30" width="6" height="4" rx="1"/>
    <rect x="48" y="38" width="6" height="4" rx="1"/>
  </g>

  <!-- Subtle highlight -->
  <path d="M14 12h36a2 2 0 0 1 2 2v8c-8 3-16 5-24 5s-16-2-24-5v-8a2 2 0 0 1 2-2z" fill="#ffffff" fill-opacity="0.08"/>
</svg>
